<svg width="19" height="29" viewBox="0 0 19 29" version="1.1" xmlns="http://www.w3.org/2000/svg" xmlns:xlink="http://www.w3.org/1999/xlink">
<title>noun_193472</title>
<desc>Created using Figma</desc>
<g id="Canvas" transform="translate(168 -1015)">
<g id="noun_193472">
<g id="Group">
<g id="Vector">
<use xlink:href="#path0_fill" transform="translate(-167.38 1015.99)"/>
</g>
</g>
</g>
</g>
<defs>
<path id="path0_fill" d="M 9.62 17.76C 9.62 18.167 9.287 18.5 8.88 18.5C 8.473 18.5 8.14 18.167 8.14 17.76C 8.14 17.353 8.473 17.02 8.88 17.02C 9.287 17.02 9.62 17.353 9.62 17.76ZM 8.88 15.91C 9.176 15.91 9.435 15.651 9.435 15.355L 9.435 9.065C 9.435 8.769 9.176 8.51 8.88 8.51C 8.584 8.51 8.325 8.769 8.325 9.065L 8.325 15.355C 8.325 15.651 8.584 15.91 8.88 15.91ZM 17.76 6.105L 17.76 26.455C 17.76 26.677 17.649 26.862 17.427 26.973C 17.353 27.01 17.279 27.01 17.205 27.01C 17.057 27.01 16.946 26.973 16.835 26.862L 15.54 25.715L 14.245 26.862C 14.023 27.047 13.727 27.047 13.505 26.862L 12.21 25.715L 10.915 26.862C 10.693 27.047 10.397 27.047 10.175 26.862L 8.88 25.715L 7.585 26.862C 7.363 27.047 7.067 27.047 6.845 26.862L 5.55 25.715L 4.255 26.862C 4.033 27.047 3.737 27.047 3.515 26.862L 2.22 25.715L 0.925 26.862C 0.777 27.01 0.518 27.047 0.333 26.936C 0.111 26.862 0 26.677 0 26.455L 0 0.555C 0 0.259 0.259 0 0.555 0L 11.655 0C 11.692 0 11.729 0 11.766 0C 11.803 0 11.803 1.40592e-07 11.84 0.0370001L 11.877 0.0370001C 11.914 0.0370001 11.914 0.0739999 11.951 0.0739999C 11.951 0.0739999 11.951 0.0739999 11.988 0.0739999C 12.025 0.111 12.062 0.111 12.062 0.148L 14.837 2.923C 16.428 4.514 17.131 5.217 17.464 5.587C 17.612 5.661 17.723 5.809 17.76 5.994C 17.76 6.031 17.76 6.068 17.76 6.105ZM 12.21 1.887L 12.21 5.55L 15.873 5.55C 14.837 4.514 13.246 2.923 12.21 1.887ZM 16.65 25.234L 16.65 6.66L 11.655 6.66C 11.359 6.66 11.1 6.401 11.1 6.105L 11.1 1.11L 1.11 1.11L 1.11 25.234L 1.85 24.568C 1.961 24.457 2.072 24.42 2.22 24.42C 2.368 24.42 2.479 24.457 2.59 24.568L 3.885 25.715L 5.18 24.568C 5.402 24.383 5.698 24.383 5.92 24.568L 7.215 25.715L 8.51 24.568C 8.732 24.383 9.028 24.383 9.25 24.568L 10.545 25.715L 11.84 24.568C 12.062 24.383 12.358 24.383 12.58 24.568L 13.875 25.715L 15.17 24.568C 15.392 24.383 15.688 24.383 15.91 24.568L 16.65 25.234ZM 14.43 21.46L 3.33 21.46C 3.034 21.46 2.775 21.719 2.775 22.015C 2.775 22.311 3.034 22.57 3.33 22.57L 14.43 22.57C 14.726 22.57 14.985 22.311 14.985 22.015C 14.985 21.719 14.726 21.46 14.43 21.46Z"/>
</defs>
</svg>
