<svg width="47" height="62" viewBox="0 0 47 62" version="1.1" xmlns="http://www.w3.org/2000/svg" xmlns:xlink="http://www.w3.org/1999/xlink">
<title>noun_101939</title>
<desc>Created using Figma</desc>
<g id="Canvas" transform="translate(181 -1218)">
<g id="noun_101939">
<g id="Group">
<g id="Vector">
<use xlink:href="#path0_fill" transform="translate(-181 1218)"/>
</g>
</g>
<g id="Group">
<g id="Vector">
<use xlink:href="#path1_fill" transform="translate(-171 1219)"/>
</g>
</g>
<g id="Group">
<g id="Vector">
<use xlink:href="#path2_fill" transform="translate(-177 1223)"/>
</g>
</g>
<g id="Group">
<g id="Vector">
<use xlink:href="#path3_fill" transform="translate(-173 1229)"/>
</g>
</g>
<g id="Group">
<g id="Vector">
<use xlink:href="#path4_fill" transform="translate(-173 1241)"/>
</g>
</g>
<g id="Group">
<g id="Vector">
<use xlink:href="#path5_fill" transform="translate(-173 1249)"/>
</g>
</g>
<g id="Group">
<g id="Vector">
<use xlink:href="#path6_fill" transform="translate(-173 1245)"/>
</g>
</g>
<g id="Group">
<g id="Vector">
<use xlink:href="#path6_fill" transform="translate(-173 1253)"/>
</g>
</g>
<g id="Group">
<g id="Vector">
<use xlink:href="#path7_fill" transform="translate(-149.7 1263.3)"/>
</g>
</g>
</g>
</g>
<defs>
<path id="path0_fill" d="M 42 62L 5 62C 2.2 62 0 59.8 0 57L 0 5C 0 2.2 2.2 0 5 0L 42 0C 44.8 0 47 2.2 47 5L 47 57C 47 59.8 44.8 62 42 62ZM 5 2C 3.3 2 2 3.3 2 5L 2 57C 2 58.7 3.3 60 5 60L 42 60C 43.7 60 45 58.7 45 57L 45 5C 45 3.3 43.7 2 42 2L 5 2Z"/>
<path id="path1_fill" d="M 24.2 8L 2.8 8C 1.3 8 0 6.7 0 5.2L 0 0L 2 0L 2 5.2C 2 5.6 2.4 6 2.8 6L 24.2 6C 24.6 6 25 5.6 25 5.2L 25 0L 27 0L 27 5.2C 27 6.7 25.7 8 24.2 8Z"/>
<path id="path2_fill" d="M 39 51L 0 51L 0 0L 7 0L 7 2L 2 2L 2 49L 37 49L 37 2L 32 2L 32 0L 39 0L 39 51Z"/>
<path id="path3_fill" d="M 11 7L 0 7L 0 0L 11 0L 11 7ZM 2 5L 9 5L 9 2L 2 2L 2 5Z"/>
<path id="path4_fill" d="M 31 0L 0 0L 0 2L 31 2L 31 0Z"/>
<path id="path5_fill" d="M 24 0L 0 0L 0 2L 24 2L 24 0Z"/>
<path id="path6_fill" d="M 28 0L 0 0L 0 2L 28 2L 28 0Z"/>
<path id="path7_fill" d="M 2.7 6.1L -7.62939e-07 3.4L 1.4 2L 2.7 3.3L 6 -7.62939e-07L 7.4 1.4L 2.7 6.1Z"/>
</defs>
</svg>
