<svg width="39" height="20" viewBox="0 0 39 20" version="1.1" xmlns="http://www.w3.org/2000/svg" xmlns:xlink="http://www.w3.org/1999/xlink">
<title>noun_97422</title>
<desc>Created using Figma</desc>
<g id="Canvas" transform="translate(179 -959)">
<g id="noun_97422">
<g id="Group">
<g id="Group">
<g id="Group">
<g id="Vector">
<use xlink:href="#path0_fill" transform="translate(-172.949 959.096)"/>
</g>
</g>
</g>
</g>
<g id="Group">
<g id="Group">
<g id="Group">
<g id="Vector">
<use xlink:href="#path1_fill" transform="translate(-178.075 959.815)"/>
</g>
</g>
</g>
</g>
<g id="Group">
<g id="Group">
<g id="Group">
<g id="Vector">
<use xlink:href="#path2_fill" transform="translate(-178.025 967.72)"/>
</g>
</g>
</g>
</g>
<g id="Group">
<g id="Group">
<g id="Group">
<g id="Vector">
<use xlink:href="#path3_fill" transform="translate(-169.404 959.096)"/>
</g>
</g>
</g>
</g>
<g id="Group">
<g id="Vector">
<use xlink:href="#path4_fill" transform="translate(-157.226 961.01)"/>
</g>
</g>
<g id="Group">
<g id="Vector">
<use xlink:href="#path5_fill" transform="translate(-157.226 964.403)"/>
</g>
</g>
<g id="Group">
<g id="Vector">
<use xlink:href="#path6_fill" transform="translate(-157.226 974.474)"/>
</g>
</g>
<g id="Group">
<g id="Vector">
<use xlink:href="#path7_fill" transform="translate(-157.226 967.76)"/>
</g>
</g>
<g id="Group">
<g id="Vector">
<use xlink:href="#path8_fill" transform="translate(-157.226 971.117)"/>
</g>
</g>
</g>
</g>
<defs>
<path id="path0_fill" d="M 4.57647 11.0512C 4.17953 11.0512 3.81021 10.8169 3.64847 10.4416L 0.0826961 2.18593C -0.13431 1.68443 0.0901094 1.10169 0.588145 0.873432C 1.90501 0.269213 3.13493 -2.97078e-07 4.57715 -2.97078e-07C 5.13516 -2.97078e-07 5.58805 0.450478 5.58805 1.00703L 5.58805 10.0435C 5.58805 10.5215 5.25108 10.9337 4.78135 11.0297C 4.71261 11.0438 4.64387 11.0512 4.57647 11.0512ZM 2.35182 2.34504L 3.56558 5.15533L 3.56558 2.0765C 3.15111 2.12954 2.75214 2.21816 2.35182 2.34504Z"/>
<path id="path1_fill" d="M 1.06216 10.9136C 0.831671 10.9136 0.606578 10.8351 0.425964 10.6894C 0.217719 10.5216 0.0849545 10.2772 0.0566494 10.0113C -0.392189 5.73346 1.8547 1.83893 5.78102 0.0880407C 6.02566 -0.0220614 6.30467 -0.028775 6.55605 0.0672286C 6.80675 0.163232 7.00893 0.354568 7.11811 0.599612L 10.6691 8.58537C 10.7998 8.87942 10.7816 9.21846 10.6199 9.49707C 10.4581 9.77568 10.1724 9.96031 9.8509 9.99455L 1.16796 10.9083C 1.13292 10.9123 1.09787 10.9136 1.06216 10.9136ZM 5.70622 2.3975C 3.43911 3.76975 2.07507 6.13963 2.02453 8.79282L 8.2584 8.13691L 5.70622 2.3975Z"/>
<path id="path2_fill" d="M 9.72439 10.6812C 5.14098 10.6812 1.12097 7.45936 0.166011 3.0197C 0.0925529 2.67663 0.0426827 2.36781 0.00561643 2.01871C -0.0226887 1.75285 0.0568354 1.487 0.225318 1.27888C 0.394475 1.07076 0.639112 0.938499 0.906663 0.910973L 9.62869 0.00531683C 10.1436 -0.0470488 10.614 0.292655 10.7218 0.7955L 12.5455 9.27135C 12.6021 9.53385 12.5515 9.80642 12.4053 10.0313C 12.259 10.2562 12.0292 10.4133 11.7657 10.4684C 11.0925 10.6094 10.4064 10.6812 9.72439 10.6812ZM 2.18983 2.80285C 3.02348 6.214 6.15861 8.66713 9.72371 8.66713C 9.92926 8.66713 10.1355 8.65907 10.3417 8.64296L 8.93454 2.10263L 2.18983 2.80285Z"/>
<path id="path3_fill" d="M 2.81636 19.1195C 2.34933 19.1195 1.92947 18.7966 1.82905 18.3219L 0.0222402 9.86354C 0.00741368 9.79439 -2.05668e-07 9.7239 -2.05668e-07 9.65407L -2.05668e-07 1.00703C -2.05668e-07 0.45115 0.452882 -2.97078e-07 1.0109 -2.97078e-07C 6.35989 -2.97078e-07 10.7115 4.33091 10.7115 9.65407C 10.7115 14.2569 7.55208 18.14 3.02798 19.0967C 2.95654 19.1121 2.88578 19.1195 2.81636 19.1195ZM 2.02112 9.548L 3.58195 16.855C 6.63351 15.7903 8.689 12.9558 8.689 9.65407C 8.689 5.78237 5.77964 2.57397 2.02112 2.07986L 2.02112 9.548Z"/>
<path id="path4_fill" d="M 6.64968 2.01406L 1.0109 2.01406C 0.451533 2.01406 -7.81537e-07 1.56291 -7.81537e-07 1.00703C -7.81537e-07 0.450478 0.451533 -4.09762e-07 1.0109 -4.09762e-07L 6.64968 -4.09762e-07C 7.2077 -4.09762e-07 7.66058 0.450478 7.66058 1.00703C 7.66058 1.56291 7.2077 2.01406 6.64968 2.01406Z"/>
<path id="path5_fill" d="M 15.9904 2.01406L 1.0109 2.01406C 0.451533 2.01406 -7.81537e-07 1.56291 -7.81537e-07 1.00703C -7.81537e-07 0.450478 0.451533 -2.04881e-07 1.0109 -2.04881e-07L 15.9917 -2.04881e-07C 16.5491 -2.04881e-07 17.0026 0.450478 17.0026 1.00703C 17.0013 1.56291 16.5477 2.01406 15.9904 2.01406Z"/>
<path id="path6_fill" d="M 15.9904 2.01406L 1.0109 2.01406C 0.451533 2.01406 -7.81537e-07 1.56291 -7.81537e-07 1.00703C -7.81537e-07 0.45115 0.451533 -2.04881e-07 1.0109 -2.04881e-07L 15.9917 -2.04881e-07C 16.5491 -2.04881e-07 17.0026 0.45115 17.0026 1.00703C 17.0026 1.56291 16.5477 2.01406 15.9904 2.01406Z"/>
<path id="path7_fill" d="M 12.2838 2.01406L 1.0109 2.01406C 0.451533 2.01406 -7.81537e-07 1.56358 -7.81537e-07 1.00703C -7.81537e-07 0.45115 0.451533 -2.04881e-07 1.0109 -2.04881e-07L 12.2851 -2.04881e-07C 12.8424 -2.04881e-07 13.296 0.45115 13.296 1.00703C 13.2947 1.56291 12.8411 2.01406 12.2838 2.01406Z"/>
<path id="path8_fill" d="M 9.25106 2.01406L 1.0109 2.01406C 0.451533 2.01406 -7.81537e-07 1.56358 -7.81537e-07 1.00703C -7.81537e-07 0.45115 0.451533 -2.04881e-07 1.0109 -2.04881e-07L 9.25241 -2.04881e-07C 9.80975 -2.04881e-07 10.2633 0.45115 10.2633 1.00703C 10.262 1.56291 9.8084 2.01406 9.25106 2.01406Z"/>
</defs>
</svg>
