<svg width="39" height="31" viewBox="0 0 39 31" version="1.1" xmlns="http://www.w3.org/2000/svg" xmlns:xlink="http://www.w3.org/1999/xlink">
<title>noun_906268</title>
<desc>Created using Figma</desc>
<g id="Canvas" transform="translate(178 -883)">
<g id="noun_906268">
<g id="Group">
<g id="Group">
<g id="Group">
<g id="Vector">
<use xlink:href="#path0_fill" transform="translate(-162.4 898.5)"/>
</g>
<g id="Vector">
<use xlink:href="#path1_fill" transform="translate(-178 895.917)"/>
</g>
<g id="Vector">
<use xlink:href="#path2_fill" transform="translate(-155.25 906.25)"/>
</g>
<g id="Vector">
<use xlink:href="#path2_fill" transform="translate(-153.3 892.042)"/>
</g>
<g id="Vector">
<use xlink:href="#path3_fill" transform="translate(-174.1 899.792)"/>
</g>
<g id="Vector">
<use xlink:href="#path4_fill" transform="translate(-168.9 886.875)"/>
</g>
<g id="Vector">
<use xlink:href="#path5_fill" transform="translate(-146.8 901.083)"/>
</g>
<g id="Vector">
<use xlink:href="#path6_fill" transform="translate(-158.5 889.458)"/>
</g>
<g id="Vector">
<use xlink:href="#path7_fill" transform="translate(-172.8 883)"/>
</g>
</g>
</g>
</g>
</g>
</g>
<defs>
<path id="path0_fill" fill-rule="evenodd" d="M 15.6 14.2083L 1.3 14.2083L 1.3 1.9375C 1.3 1.58054 1.59073 1.29167 1.95 1.29167L 14.95 1.29167C 15.3093 1.29167 15.6 1.58054 15.6 1.9375L 15.6 14.2083ZM 16.25 15.5C 16.609 15.5 16.9 15.2109 16.9 14.8542L 16.9 1.9375C 16.9 0.86717 16.0272 0 14.95 0L 1.95 0C 0.872765 0 0 0.86717 0 1.9375L 0 14.8542C 0 15.2109 0.291015 15.5 0.65 15.5L 16.25 15.5Z"/>
<path id="path1_fill" fill-rule="evenodd" d="M 14.95 0L 1.95 0C 0.872765 0 0 0.86717 0 1.9375L 0 17.4375C 0 17.7942 0.291015 18.0833 0.65 18.0833L 16.25 18.0833C 16.609 18.0833 16.9 17.7942 16.9 17.4375L 16.9 1.9375C 16.9 0.86717 16.0272 0 14.95 0ZM 1.3 16.7917L 1.3 1.9375C 1.3 1.58054 1.59074 1.29167 1.95 1.29167L 14.95 1.29167C 15.3093 1.29167 15.6 1.58054 15.6 1.9375L 15.6 16.7917L 1.3 16.7917Z"/>
<path id="path2_fill" fill-rule="evenodd" d="M 0.65 5.16667L 5.85 5.16667C 6.20898 5.16667 6.5 4.87752 6.5 4.52083L 6.5 0.645833C 6.5 0.289149 6.20898 0 5.85 0L 0.65 0C 0.291015 0 0 0.289149 0 0.645833L 0 4.52083C 0 4.87752 0.291015 5.16667 0.65 5.16667ZM 1.3 1.29167L 5.2 1.29167L 5.2 3.875L 1.3 3.875L 1.3 1.29167Z"/>
<path id="path3_fill" fill-rule="evenodd" d="M 0.65 6.45833L 8.45 6.45833C 8.80898 6.45833 9.1 6.16918 9.1 5.8125L 9.1 0.645833C 9.1 0.289149 8.80898 0 8.45 0L 0.65 0C 0.291015 0 0 0.289149 0 0.645833L 0 5.8125C 0 6.16918 0.291015 6.45833 0.65 6.45833ZM 1.3 1.29167L 7.8 1.29167L 7.8 5.16667L 1.3 5.16667L 1.3 1.29167Z"/>
<path id="path4_fill" fill-rule="evenodd" d="M 0.65 6.45833L 8.45 6.45833C 8.80898 6.45833 9.1 6.16918 9.1 5.8125L 9.1 0.645833C 9.1 0.289149 8.80898 0 8.45 0L 0.65 0C 0.291015 0 0 0.289149 0 0.645833L 0 5.8125C 0 6.16918 0.291015 6.45833 0.65 6.45833ZM 1.3 1.29167L 7.8 1.29167L 7.8 5.16667L 1.3 5.16667L 1.3 1.29167Z"/>
<path id="path5_fill" fill-rule="evenodd" d="M 0.65 12.9167L 7.15 12.9167C 7.50899 12.9167 7.8 12.6275 7.8 12.2708L 7.8 0.645833C 7.8 0.289149 7.50899 0 7.15 0L 0.65 0C 0.291015 0 0 0.289149 0 0.645833L 0 12.2708C 0 12.6275 0.291015 12.9167 0.65 12.9167ZM 1.3 1.29167L 6.5 1.29167L 6.5 11.625L 1.3 11.625L 1.3 1.29167Z"/>
<path id="path6_fill" fill-rule="evenodd" d="M 11.05 10.3333C 11.4093 10.3333 11.7 10.6222 11.7 10.9792L 11.7 12.2708C 11.7 12.6275 11.991 12.9167 12.35 12.9167L 16.25 12.9167C 16.609 12.9167 16.9 12.6275 16.9 12.2708L 16.9 1.9375C 16.9 0.86717 16.0272 0 14.95 0L 1.95 0C 0.872765 0 0 0.86717 0 1.9375L 0 9.6875C 0 10.0442 0.291015 10.3333 0.65 10.3333L 11.05 10.3333ZM 1.3 1.9375C 1.3 1.58054 1.59073 1.29167 1.95 1.29167L 14.95 1.29167C 15.3093 1.29167 15.6 1.58054 15.6 1.9375L 15.6 11.625L 13 11.625L 13 10.9792C 13 9.90884 12.1272 9.04167 11.05 9.04167L 1.3 9.04167L 1.3 1.9375Z"/>
<path id="path7_fill" fill-rule="evenodd" d="M 9.75 14.2083C 10.1093 14.2083 10.4 14.4972 10.4 14.8542L 10.4 17.4375L 11.7 17.4375C 11.7 17.0805 11.9907 16.7917 12.35 16.7917L 14.95 16.7917C 15.309 16.7917 15.6 16.5025 15.6 16.1458L 15.6 8.39583C 15.6 8.03887 15.8907 7.75 16.25 7.75C 16.609 7.75 16.9 7.46085 16.9 7.10417L 16.9 1.9375C 16.9 0.86717 16.0272 0 14.95 0L 1.95 0C 0.872765 0 0 0.86717 0 1.9375L 0 13.5625C 0 13.9192 0.291015 14.2083 0.65 14.2083L 9.75 14.2083ZM 10.4 17.4375C 10.4 18.2986 11.7 18.2986 11.7 17.4375L 11.7 15.6102C 10.9425 15.8761 10.4 16.5936 10.4 17.4375ZM 1.3 12.9167L 1.3 1.9375C 1.3 1.58054 1.59073 1.29167 1.95 1.29167L 14.95 1.29167C 15.3093 1.29167 15.6 1.58054 15.6 1.9375L 15.6 6.56851C 14.8425 6.8344 14.3 7.55197 14.3 8.39583L 14.3 15.5L 12.35 15.5C 12.1221 15.5 11.9033 15.5388 11.7 15.6102L 11.7 14.8542C 11.7 13.7838 10.8272 12.9167 9.75 12.9167L 1.3 12.9167Z"/>
</defs>
</svg>
